PathFileType  4	(X/Y/Z) C:\Users\antoi\Documents\MyRepositories\mobilecap\ResultsAnalysis
DataRate	CameraRate	NumFrames	NumMarkers	Units	OrigDataRate	OrigDataStartFrame	OrigNumFrames
100.0	100.0	4	51	mm	100.0	889	1184
Frame#	Time	r_knee			r_shank_antsup			r_ankle			r_calc			r_5meta			r_toe			L_knee			L_shank_antsup			L_ankle			L_calc			L_5meta			L_toe			r_sh2			r_sh3			r_sh4			L_sh2			L_sh3			r_thigh1			r_thigh2			r_thigh3			r_thigh4			r_thigh5			L_thigh1			L_thigh2			L_thigh3			L_thigh4			r.ASIS			r.PSIS			L.ASIS			L.PSIS			C7			R_Shoulder			L_Shoulder			R_Sternum			L_Sternum			R_humerus			R_elbow_med			R_elbow_lat			R_forearm			R_wrist_radius			R_wrist_ulna			L_humerus			L_elbow_med			L_elbow_lat			L_forearm			L_wrist_radius			L_wrist_ulna			R_HJC			L_HJC			R_HJC_reg			L_HJC_reg			
		X1	Y1	Z1	X2	Y2	Z2	X3	Y3	Z3	X4	Y4	Z4	X5	Y5	Z5	X6	Y6	Z6	X7	Y7	Z7	X8	Y8	Z8	X9	Y9	Z9	X10	Y10	Z10	X11	Y11	Z11	X12	Y12	Z12	X13	Y13	Z13	X14	Y14	Z14	X15	Y15	Z15	X16	Y16	Z16	X17	Y17	Z17	X18	Y18	Z18	X19	Y19	Z19	X20	Y20	Z20	X21	Y21	Z21	X22	Y22	Z22	X23	Y23	Z23	X24	Y24	Z24	X25	Y25	Z25	X26	Y26	Z26	X27	Y27	Z27	X28	Y28	Z28	X29	Y29	Z29	X30	Y30	Z30	X31	Y31	Z31	X32	Y32	Z32	X33	Y33	Z33	X34	Y34	Z34	X35	Y35	Z35	X36	Y36	Z36	X37	Y37	Z37	X38	Y38	Z38	X39	Y39	Z39	X40	Y40	Z40	X41	Y41	Z41	X42	Y42	Z42	X43	Y43	Z43	X44	Y44	Z44	X45	Y45	Z45	X46	Y46	Z46	X47	Y47	Z47	X48	Y48	Z48	X49	Y49	Z49	X50	Y50	Z50	X51	Y51	Z51	

889	8.88000000	-138.63241	417.35768	-372.45578	-117.21125	302.07803	-372.59595	-299.23882	90.37755	-414.14919	-348.97843	53.18343	-463.31224	-207.08770	40.13081	-350.48511	-163.20490	57.39777	-386.34729	-125.51930	425.03451	-880.60042	-90.31437	308.82016	-856.65745	-287.40749	92.56304	-855.76002	-333.76457	52.70002	-806.79486	-185.68856	36.79923	-906.21282	-136.73266	53.80783	-860.36239	-176.22764	207.48321	-391.95456	-178.11493	329.61362	-337.85223	-245.23321	243.42577	-365.57541	-143.77327	357.56064	-907.47824	-207.84932	254.11062	-914.98310	-322.65444	649.93065	-432.11202	-236.89591	594.15567	-409.04586	-250.44882	543.08255	-364.03620	-387.81326	564.87353	-396.33261	-292.26361	506.28667	-369.03317	-316.82865	629.46101	-830.79673	-202.05291	571.58705	-852.98703	-387.52833	545.56578	-861.72024	-261.84928	483.59773	-882.69037	-284.46784	627.33938	-506.11592	-413.57254	755.21408	-580.70127	-273.99394	618.95548	-742.40624	-409.25164	755.54277	-688.23126	-141.90906	1075.37137	-619.51782	-86.89032	1033.41250	-478.18339	-76.27003	1036.95600	-760.08047	-46.50553	977.27293	-595.97899	-41.24585	974.96186	-639.07477	-60.15011	947.39783	-398.11301	-107.59754	746.86465	-323.08141	-49.84877	799.48903	-286.23249	3.65792	836.11516	-390.58736	22.88255	863.00574	-484.42046	57.85915	850.75337	-475.40588	-33.32375	926.03369	-839.60152	-66.57356	728.35175	-888.86298	-12.40289	767.20828	-934.35505	34.70041	801.58996	-840.53769	36.80028	837.64463	-721.79977	66.86522	826.43110	-723.54158	-396.55332	611.63897	-531.12150	-386.90493	601.48796	-719.98077	-378.93723	602.14072	-542.86152	-372.66559	602.61769	-698.93756	
890	8.89000000	-139.55372	418.56113	-373.43081	-118.37026	302.59589	-374.08299	-299.36163	90.30130	-414.15778	-349.04015	53.20993	-463.18580	-207.09398	40.16948	-350.45472	-163.30060	57.50656	-386.26754	-126.33806	426.00076	-879.49240	-91.17519	309.62199	-856.12734	-287.51615	92.75305	-856.01946	-333.80861	52.72779	-806.86357	-185.69194	36.75351	-906.22575	-136.78520	53.86877	-860.37817	-176.77811	208.12718	-392.13500	-179.05603	330.39925	-338.62502	-245.82151	244.14760	-365.71037	-144.73995	358.31950	-906.55309	-208.53730	254.90783	-914.85398	-320.72899	654.66904	-431.56916	-235.16497	597.96232	-409.07991	-249.61676	546.53135	-364.41271	-386.63168	570.04089	-396.78528	-291.85482	510.14253	-369.50551	-314.71776	633.89977	-830.80985	-200.70089	574.30496	-852.42620	-386.37690	550.84819	-861.66794	-261.53076	487.03059	-882.15604	-283.63478	632.76175	-505.84911	-412.17130	761.81288	-580.50629	-273.13314	624.62487	-742.84534	-407.87838	762.07826	-688.39442	-142.72572	1083.40046	-619.39702	-87.69560	1041.63166	-477.68489	-77.30787	1045.20016	-760.19402	-46.83405	985.72187	-595.84074	-41.48073	983.66162	-639.06255	-62.06395	954.75373	-397.73677	-112.13674	754.58187	-323.43336	-54.03245	806.47638	-286.04543	0.69418	842.74859	-389.96198	20.62649	869.77263	-483.64071	55.33909	856.83228	-474.57212	-36.11262	933.10698	-840.26442	-73.12243	735.89644	-888.69957	-18.63258	773.65887	-934.80188	29.86927	807.79054	-841.71681	33.46126	844.85499	-722.89353	63.22246	832.64365	-724.68386	-395.90042	617.89116	-531.24507	-386.28899	607.88560	-720.11382	-378.41473	608.31844	-542.67826	-372.18605	608.70331	-699.21699	
891	8.90000000	-140.54784	419.77530	-374.35715	-119.34811	303.43486	-374.92935	-299.95571	91.32447	-412.92052	-349.07796	53.25009	-463.11667	-207.10961	40.20161	-350.41469	-163.42268	57.67196	-386.13968	-127.24905	427.12745	-878.70132	-92.18568	310.39520	-855.34930	-287.61852	92.84520	-856.15180	-333.83031	52.73756	-806.94839	-185.71398	36.72064	-906.27709	-136.82648	53.91923	-860.37903	-177.32044	208.76860	-392.44722	-180.07015	331.16797	-339.39330	-246.46302	244.60166	-366.03619	-145.87036	359.20463	-905.88810	-209.31282	255.56488	-914.49095	-318.07906	658.72894	-432.23597	-232.07640	601.31857	-409.29934	-248.70122	549.82113	-365.12791	-385.44649	575.37270	-397.30554	-291.42415	514.19431	-369.96602	-312.55006	638.40123	-830.56561	-199.34896	577.26285	-852.04279	-385.18554	556.38407	-861.35944	-261.29678	490.67765	-881.60773	-282.69758	638.49265	-505.64249	-410.70632	768.80985	-580.30894	-272.27576	630.77901	-742.65580	-406.45057	769.02215	-688.49169	-143.56008	1091.82307	-619.37794	-88.53604	1050.30205	-477.22724	-78.36830	1054.01223	-760.59734	-47.13261	994.67249	-595.76281	-41.96578	992.67157	-639.26385	-63.99731	962.47751	-397.45865	-117.03725	762.93242	-323.64078	-58.39673	813.92335	-285.77424	-2.39322	849.53540	-389.30599	18.22725	876.70583	-482.71588	52.78895	862.98556	-473.78538	-39.03423	940.74893	-840.80144	-79.95010	744.17049	-888.61108	-25.21709	780.61070	-935.15124	24.78971	814.32508	-842.74557	30.25343	852.26138	-724.04659	59.58085	838.97547	-725.79542	-395.23095	624.56090	-531.21934	-385.58166	614.67362	-720.09238	-377.68203	615.05486	-542.43092	-371.52431	615.36192	-698.97239	
892	8.91000000	-141.66065	420.96780	-375.42836	-120.17844	304.69132	-374.99787	-300.89384	93.18882	-410.80047	-349.09969	53.24868	-463.09308	-207.12755	40.21594	-350.39599	-163.49813	57.80586	-386.08288	-128.28789	428.28712	-877.93355	-93.27223	311.31040	-854.67717	-287.71488	92.86764	-856.18751	-333.84411	52.79419	-807.07058	-185.74791	36.69865	-906.35972	-136.88624	53.95138	-860.38008	-177.96783	209.50318	-392.76516	-181.22936	332.02553	-339.99598	-247.21997	244.85635	-366.72571	-147.15653	360.11286	-905.34134	-210.14483	256.15575	-914.04147	-314.70192	661.91747	-434.34145	-229.62920	604.11555	-409.96135	-247.73682	553.15319	-365.85790	-384.25335	580.93046	-397.72527	-291.05456	518.44521	-370.30906	-310.28264	642.96548	-830.14301	-198.02388	580.33955	-851.69092	-384.10833	562.20526	-861.01069	-261.15164	494.62203	-881.12510	-281.63358	644.57367	-505.39448	-409.16119	776.10398	-580.12655	-271.38226	637.22463	-742.06325	-404.98313	776.34684	-688.51989	-144.39203	1100.63110	-619.47137	-89.32280	1059.39362	-476.99179	-79.49375	1063.36913	-761.06436	-47.36723	1004.16429	-595.87815	-42.48720	1002.02428	-639.49001	-65.97677	970.58448	-397.01681	-122.06002	771.59074	-324.00243	-62.93387	821.80041	-285.47017	-5.65407	856.52777	-388.70425	15.77375	883.75771	-481.79592	50.09437	869.17075	-473.15337	-41.97739	948.98329	-841.40641	-86.93642	752.79539	-887.94517	-32.09841	788.07391	-935.30880	19.56840	821.19029	-843.46947	27.14856	859.82510	-725.28010	55.96654	845.46035	-726.94007	-394.49569	631.61497	-531.03186	-384.79216	621.74473	-719.90310	-376.75045	622.08060	-542.05940	-370.72598	622.43062	-698.36611	
